<svg width="24" height="24" viewBox="0 0 24 24" fill="none" xmlns="http://www.w3.org/2000/svg">
<path d="M4.68706 1.78727C4.9791 1.48961 5.39581 1.32321 5.81206 1.33399C9.92347 1.33586 14.0344 1.33118 18.1458 1.33633C18.923 1.34524 19.6069 2.03665 19.6111 2.81336C19.6163 5.87336 19.6125 8.93336 19.613 11.9938C18.263 11.9938 16.9125 11.9938 15.5625 11.9938C15.188 11.9966 14.8093 11.9737 14.4403 12.0524C13.6444 12.2066 12.9263 12.7007 12.4866 13.3809C12.1608 13.8702 11.9921 14.459 11.9935 15.0459C11.993 17.5837 11.9935 20.1215 11.9935 22.6588C8.94894 22.6593 5.90488 22.6593 2.86081 22.6588C2.42956 22.6616 2.00206 22.4723 1.71847 22.147C1.45925 21.8643 1.32519 21.479 1.33363 21.0974C1.33363 16.0016 1.33316 10.9063 1.33363 5.81055C1.32519 5.39618 1.48925 4.98133 1.78456 4.68977C2.75206 3.72227 3.7191 2.7543 4.68706 1.78727ZM5.078 6.6768C4.6041 6.6979 4.25206 7.22805 4.41894 7.67383C4.51785 7.98274 4.83003 8.20258 5.15441 8.19321C8.68597 8.19461 12.2175 8.19274 15.7496 8.19415C15.9488 8.20071 16.1546 8.14211 16.3041 8.00477C16.5535 7.79711 16.6369 7.42118 16.5014 7.12586C16.3777 6.83571 16.0627 6.6529 15.75 6.67165C12.1927 6.6754 8.63488 6.66508 5.078 6.6768ZM4.89238 10.521C4.47144 10.6523 4.25113 11.1834 4.45785 11.5743C4.58253 11.8359 4.8666 12.0079 5.15628 11.9995C6.67175 11.9999 8.18769 12.0004 9.70316 11.9995C9.91269 12.0023 10.1203 11.9156 10.2628 11.7613C10.4766 11.5462 10.5328 11.1974 10.4044 10.9241C10.2844 10.6537 9.99613 10.4713 9.69988 10.4812C8.2641 10.4812 6.82785 10.4816 5.39206 10.4812C5.22519 10.4831 5.05316 10.4652 4.89238 10.521ZM4.89472 14.3268C4.56472 14.4365 4.33597 14.789 4.38566 15.1363C4.42175 15.5141 4.77613 15.8216 5.15535 15.8057C6.67081 15.8062 8.18675 15.8062 9.70269 15.8057C9.94878 15.8118 10.1883 15.6871 10.3303 15.4874C10.5558 15.1888 10.5061 14.7262 10.2216 14.4834C10.0589 14.3277 9.82831 14.2729 9.60847 14.2865C8.20222 14.2884 6.7955 14.287 5.38925 14.287C5.22425 14.2888 5.0541 14.2729 4.89472 14.3268Z" fill="#828892"/>
<path d="M13.904 14.0421C14.1885 13.7163 14.6179 13.5241 15.0506 13.5279C17.0812 13.5279 19.1123 13.5279 21.1434 13.5279C21.5957 13.5241 22.0415 13.7393 22.3246 14.0913C22.5543 14.3702 22.6729 14.7326 22.6664 15.093C22.6664 17.1087 22.6673 19.1248 22.6659 21.1404C22.6659 21.4774 22.5529 21.8135 22.3453 22.0788C22.0635 22.4482 21.6046 22.6746 21.1401 22.6713C18.6 22.6718 16.0603 22.6718 13.5201 22.6713C13.5201 20.1452 13.5201 17.6187 13.5201 15.0926C13.5121 14.7105 13.6471 14.3262 13.904 14.0421ZM19.1114 16.578C18.6464 17.0416 18.1893 17.5137 17.7262 17.9791C17.4745 17.7518 17.2439 17.4991 16.9771 17.2891C16.6814 17.0876 16.2473 17.1476 16.0148 17.419C15.7514 17.6923 15.7415 18.168 16.0101 18.4409C16.3973 18.821 16.7929 19.1918 17.182 19.5696C17.4496 19.8659 17.9573 19.8869 18.2437 19.6071C18.8859 18.9659 19.5281 18.3246 20.1609 17.6749C20.4384 17.4077 20.4581 16.9305 20.1965 16.6465C19.9382 16.3244 19.4071 16.2902 19.1114 16.578Z" fill="#828892"/>
</svg>
