<svg width="365" height="124" viewBox="0 0 365 124" fill="none" xmlns="http://www.w3.org/2000/svg">
<path fill-rule="evenodd" clip-rule="evenodd" d="M183.059 240.375C183.059 160.639 244.277 96 319.794 96H401.836V119.571H319.794C256.607 119.571 205.383 173.657 205.383 240.375H183.059Z" fill="url(#paint0_linear_1_3843)"/>
<path fill-rule="evenodd" clip-rule="evenodd" d="M-7.81311 82.5C67.7038 82.5 128.922 147.139 128.922 226.875L128.922 313.5L106.598 313.5L106.598 226.875C106.598 160.157 55.3745 106.071 -7.81311 106.071L-7.81311 82.5Z" fill="url(#paint1_linear_1_3843)"/>
<path fill-rule="evenodd" clip-rule="evenodd" d="M371.139 70C295.622 70 234.404 5.3611 234.404 -74.375L234.404 -161L256.728 -161L256.728 -74.375C256.728 -7.65703 307.951 46.4286 371.139 46.4286L371.139 70Z" fill="url(#paint2_linear_1_3843)"/>
<path fill-rule="evenodd" clip-rule="evenodd" d="M54.6945 35.3749L-62.5074 35.375L-62.5074 11.8036L54.6945 11.8035C117.882 11.8035 169.106 -42.282 169.106 -109L191.43 -109C191.43 -29.2639 130.211 35.3749 54.6945 35.3749Z" fill="url(#paint3_linear_1_3843)"/>
<defs>
<linearGradient id="paint0_linear_1_3843" x1="384.534" y1="103.661" x2="191.618" y2="199.339" gradientUnits="userSpaceOnUse">
<stop stop-color="white" stop-opacity="0"/>
<stop offset="0.829338" stop-color="white" stop-opacity="0.69"/>
<stop offset="1" stop-color="white" stop-opacity="0"/>
</linearGradient>
<linearGradient id="paint1_linear_1_3843" x1="121.667" y1="295.232" x2="14.1927" y2="100.858" gradientUnits="userSpaceOnUse">
<stop stop-color="white" stop-opacity="0"/>
<stop offset="0.510417" stop-color="white" stop-opacity="0.69"/>
<stop offset="1" stop-color="white" stop-opacity="0"/>
</linearGradient>
<linearGradient id="paint2_linear_1_3843" x1="241.659" y1="-142.732" x2="349.133" y2="51.6415" gradientUnits="userSpaceOnUse">
<stop stop-color="white" stop-opacity="0"/>
<stop offset="0.264586" stop-color="white" stop-opacity="0.69"/>
<stop offset="1" stop-color="white" stop-opacity="0"/>
</linearGradient>
<linearGradient id="paint3_linear_1_3843" x1="-47.9967" y1="28.8929" x2="181.435" y2="-60.17" gradientUnits="userSpaceOnUse">
<stop stop-color="white" stop-opacity="0"/>
<stop offset="0.978022" stop-color="white" stop-opacity="0.7"/>
<stop offset="1" stop-color="white" stop-opacity="0"/>
</linearGradient>
</defs>
</svg>
