<svg width="24" height="24" viewBox="0 0 24 24" fill="none" xmlns="http://www.w3.org/2000/svg">
<path d="M16.76 2H18.66C20.85 2 22 3.15 22 5.33V7.23C22 9.41 20.85 10.56 18.67 10.56H16.77C14.59 10.56 13.44 9.41 13.44 7.23V5.33C13.43 3.15 14.58 2 16.76 2Z" fill="#26397F"/>
<path d="M5.33006 2H7.23006C9.41006 2 10.5601 3.15 10.5601 5.33V7.23C10.5601 9.41 9.41006 10.56 7.23006 10.56H5.33006C3.15006 10.56 2.00006 9.41 2.00006 7.23V5.33C2.00006 3.15 3.15006 2 5.33006 2Z" fill="#26397F"/>
<path d="M5.33006 13.4302H7.23006C9.41006 13.4302 10.5601 14.5802 10.5601 16.7602V18.6602C10.5601 20.8402 9.41006 21.9902 7.23006 21.9902H5.33006C3.15006 21.9902 2.00006 20.8402 2.00006 18.6602V16.7602C2.00006 14.5802 3.15006 13.4302 5.33006 13.4302Z" fill="#26397F"/>
<path d="M16.76 13.4302H18.66C20.85 13.4302 22 14.5802 22 16.7602V18.6602C22 20.8502 20.85 22.0002 18.67 22.0002H16.77C14.59 22.0002 13.44 20.8502 13.44 18.6702V16.7702C13.43 14.5802 14.58 13.4302 16.76 13.4302Z" fill="#26397F"/>
</svg>
