<svg width="40" height="40" viewBox="0 0 40 40" fill="none" xmlns="http://www.w3.org/2000/svg">
<path d="M33.2991 15.5868L33.2991 15.5868L33.3031 15.5915L35.5509 18.2223C35.5513 18.2228 35.5517 18.2232 35.5521 18.2237C36.3792 19.2066 36.3716 20.8087 35.5277 21.7495L35.5276 21.7494L35.5197 21.7586L33.2698 24.3919L33.2697 24.3919L33.2658 24.3966C33.0104 24.703 32.7939 25.1165 32.6411 25.5315C32.4884 25.9463 32.3832 26.4066 32.3832 26.8167V29.6501C32.3832 31.1406 31.1571 32.3667 29.6666 32.3667H26.8332C26.4231 32.3667 25.9628 32.4719 25.548 32.6246C25.133 32.7774 24.7195 32.9939 24.4131 33.2493L24.4131 33.2492L24.4084 33.2532L21.7751 35.5032L21.7749 35.5034C20.812 36.3267 19.2044 36.3267 18.2415 35.5034L18.2414 35.5032L15.608 33.2532L15.608 33.2532L15.6033 33.2493C15.2957 32.9929 14.8771 32.7765 14.4614 32.6243C14.046 32.4722 13.5857 32.3667 13.1832 32.3667H10.2832C8.79269 32.3667 7.56655 31.1406 7.56655 29.6501V26.8001C7.56655 26.4011 7.46683 25.9425 7.31867 25.5277C7.1713 25.1151 6.95827 24.6959 6.69663 24.3918C6.69617 24.3913 6.69572 24.3908 6.69526 24.3902L4.4477 21.7431L4.44697 21.7422C3.64261 20.7992 3.63596 19.2058 4.44974 18.2213L6.6977 15.5737L6.69772 15.5737L6.70066 15.5701C6.95782 15.2616 7.17027 14.8461 7.31838 14.4336C7.46657 14.021 7.56655 13.5663 7.56655 13.1667V10.3334C7.56655 8.84286 8.79269 7.61672 10.2832 7.61672H13.1666C13.5767 7.61672 14.037 7.51154 14.4518 7.35885C14.8668 7.20606 15.2802 6.98949 15.5866 6.73416L15.5866 6.73417L15.589 6.73219L18.2557 4.48219L18.2557 4.4822L18.2582 4.48007C19.2211 3.65671 20.8287 3.65671 21.7916 4.48007L21.7918 4.48019L24.4251 6.73019L24.4251 6.73022L24.4298 6.73416C24.7376 6.99065 25.1564 7.20715 25.5746 7.35945C25.993 7.51178 26.457 7.61672 26.8666 7.61672H29.6999C31.1904 7.61672 32.4166 8.84286 32.4166 10.3334V13.1667C32.4166 13.5769 32.5217 14.0372 32.6744 14.4519C32.8272 14.867 33.0438 15.2804 33.2991 15.5868ZM19.9999 11.8C19.0404 11.8 18.2499 12.5906 18.2499 13.55V21.6C18.2499 22.5595 19.0404 23.35 19.9999 23.35C20.9594 23.35 21.7499 22.5595 21.7499 21.6V13.55C21.7499 12.5906 20.9594 11.8 19.9999 11.8ZM17.8332 26.4501C17.8332 27.6429 18.8071 28.6167 19.9999 28.6167C21.2126 28.6167 22.1666 27.6396 22.1666 26.4501C22.1666 25.2572 21.1927 24.2834 19.9999 24.2834C18.7872 24.2834 17.8332 25.2605 17.8332 26.4501Z" fill="#FC5700" stroke="#FC5700"/>
</svg>
