<svg width="24" height="24" viewBox="0 0 24 24" fill="none" xmlns="http://www.w3.org/2000/svg">
<g clip-path="url(#clip0_1_1967)">
<path d="M11.297 0H12.7024C12.7019 0.596719 12.7033 1.19297 12.7019 1.78969C12.2336 1.79063 11.7658 1.79063 11.2975 1.78969C11.2961 1.19297 11.2975 0.596719 11.297 0Z" fill="#828892"/>
<path d="M6.81421 2.02645C7.14515 1.69457 7.47608 1.36316 7.80796 1.03223C8.26452 1.48832 8.72062 1.94395 9.17624 2.40051C8.84624 2.73285 8.51436 3.06285 8.18343 3.39426C7.72686 2.93863 7.27124 2.4816 6.81421 2.02645Z" fill="#828892"/>
<path d="M14.8213 2.40293C15.2769 1.94637 15.7335 1.4898 16.1905 1.03418C16.5205 1.36559 16.8529 1.69512 17.1824 2.02746C16.7277 2.48449 16.2711 2.93918 15.8155 3.39527C15.4822 3.06668 15.1532 2.7334 14.8213 2.40293Z" fill="#828892"/>
<path d="M4.94116 6.33447C7.00554 6.33447 9.06991 6.33447 11.1348 6.33494C10.0318 7.92729 8.92788 9.51869 7.82351 11.1101C6.8621 9.51869 5.90163 7.92682 4.94116 6.33447Z" fill="#828892"/>
<path d="M12.9277 6.33447C14.9715 6.33494 17.0157 6.334 19.0595 6.33494C18.1055 7.9315 17.1507 9.5276 16.1959 11.1232C15.1051 9.5276 14.0152 7.93197 12.9277 6.33447Z" fill="#828892"/>
<path d="M0.119141 11.7747C1.34023 10.2756 2.56414 8.77986 3.78664 7.28174C4.6918 8.77846 5.59508 10.2766 6.49836 11.7747C4.37211 11.7756 2.24586 11.7756 0.119141 11.7747Z" fill="#828892"/>
<path d="M20.2138 7.28369C21.4367 8.77947 22.6592 10.2762 23.8803 11.7743C21.7625 11.7753 19.6452 11.7748 17.5273 11.7743C18.4222 10.2771 19.3175 8.77994 20.2138 7.28369Z" fill="#828892"/>
<path d="M9.16138 11.7744C10.1158 10.3949 11.072 9.01631 12.0287 7.63818C12.97 9.01678 13.9122 10.3949 14.8515 11.7744C12.9545 11.7749 11.0579 11.7754 9.16138 11.7744Z" fill="#828892"/>
<path d="M0.000244141 13.2503C2.42368 13.2498 4.84759 13.2498 7.27103 13.2508C8.44712 16.833 9.61337 20.4184 10.7913 24.0002H10.7899C7.19321 20.417 3.59603 16.8344 0.000244141 13.2503Z" fill="#828892"/>
<path d="M8.82617 13.2503C10.9529 13.2498 13.0796 13.2498 15.2068 13.2508C14.1441 16.5016 13.0801 19.7519 12.017 23.0027C10.952 19.7523 9.88883 16.5016 8.82617 13.2503Z" fill="#828892"/>
<path d="M13.2615 23.9483C14.4273 20.382 15.5935 16.8153 16.7621 13.2495C19.1743 13.2504 21.5869 13.249 23.9991 13.2504C20.4216 16.8181 16.8418 20.3834 13.2615 23.9483Z" fill="#828892"/>
</g>
<defs>
<clipPath id="clip0_1_1967">
<rect width="24" height="24" fill="white"/>
</clipPath>
</defs>
</svg>
