<svg width="154" height="129" viewBox="0 0 154 129" fill="none" xmlns="http://www.w3.org/2000/svg">
<path d="M72.7729 127.38C107.602 127.38 135.839 99.1436 135.839 64.19C135.839 29.2365 107.602 1 72.7729 1C37.9438 1 9.70728 29.2365 9.70728 64.19C9.70728 99.1436 37.9438 127.38 72.7729 127.38Z" fill="#F1F3F9" stroke="#D6DCE8" stroke-width="2" stroke-miterlimit="10"/>
<path d="M143.053 38.1922C145.87 38.1922 148.153 35.9088 148.153 33.0922C148.153 30.2755 145.87 27.9922 143.053 27.9922C140.237 27.9922 137.953 30.2755 137.953 33.0922C137.953 35.9088 140.237 38.1922 143.053 38.1922Z" fill="#F1F3F9"/>
<path d="M150.517 18.1655C152.441 18.1655 154 16.6062 154 14.6826C154 12.7591 152.441 11.1997 150.517 11.1997C148.594 11.1997 147.034 12.7591 147.034 14.6826C147.034 16.6062 148.594 18.1655 150.517 18.1655Z" fill="#F1F3F9"/>
<path d="M5.35377 41.7993C7.27733 41.7993 8.83668 40.24 8.83668 38.3164C8.83668 36.3928 7.27733 34.8335 5.35377 34.8335C3.4302 34.8335 1.87085 36.3928 1.87085 38.3164C1.87085 40.24 3.4302 41.7993 5.35377 41.7993Z" fill="#EAEEF9"/>
<path d="M11.8218 117.553C15.3941 117.553 18.2901 114.657 18.2901 111.084C18.2901 107.512 15.3941 104.616 11.8218 104.616C8.24946 104.616 5.35352 107.512 5.35352 111.084C5.35352 114.657 8.24946 117.553 11.8218 117.553Z" fill="#F1F3F9"/>
<path d="M131.236 38.9387H23.3904C21.027 38.9387 19.1611 37.0728 19.1611 34.7094V10.4534C19.1611 8.08997 21.027 6.22412 23.3904 6.22412H131.112C133.475 6.22412 135.341 8.08997 135.341 10.4534V34.7094C135.466 37.0728 133.475 38.9387 131.236 38.9387Z" fill="white" stroke="#D6DCE8" stroke-width="2" stroke-miterlimit="10"/>
<path d="M45.283 22.5192C45.283 25.2558 44.0391 27.7436 42.1732 29.485C40.5562 30.9777 38.3172 31.8484 35.9538 31.8484C33.5903 31.8484 31.3513 30.9777 29.7343 29.485C27.744 27.7436 26.6245 25.2558 26.6245 22.5192C26.6245 17.4192 30.8538 13.1899 35.9538 13.1899C41.0537 13.1899 45.283 17.4192 45.283 22.5192Z" fill="#D6DCE8"/>
<path d="M42.1731 29.4848C40.556 30.9774 38.317 31.8482 35.9536 31.8482C33.5902 31.8482 31.3512 30.9774 29.7341 29.4848C30.4805 29.236 31.3512 28.8628 32.4707 28.3653C32.7195 28.2409 32.9683 27.9921 33.0927 27.7433C33.217 27.6189 33.217 27.3701 33.217 27.2457V24.8823L33.0927 24.758C32.8439 24.5092 32.7195 24.136 32.7195 23.7628L32.4707 23.6384C31.8488 23.7628 31.9731 23.1409 31.7244 21.897C31.7244 21.3994 31.7244 21.275 31.9731 21.1506L32.2219 20.9019C31.1024 18.2897 31.6 16.6726 32.8439 16.0507C32.4707 15.1799 32.4707 14.9312 32.4707 14.9312C32.4707 14.9312 34.9585 15.3043 35.7048 15.1799C36.8244 14.9312 38.4414 15.1799 39.0634 16.6726C40.0585 17.0458 40.4317 17.6677 40.556 18.4141C40.6804 19.5336 40.0585 20.7775 39.9341 21.1506C40.0585 21.275 40.1829 21.3994 40.0585 21.7726C39.9341 22.8921 39.9341 23.6384 39.3121 23.5141L38.8146 24.6336C38.8146 24.758 38.8146 24.758 38.8146 24.8823C38.8146 25.0067 38.8146 25.3799 38.8146 27.3701C38.8146 27.6189 38.939 27.8677 38.939 27.9921C39.0634 28.2409 39.3121 28.3653 39.4365 28.4896C40.556 28.8628 41.4268 29.236 42.1731 29.4848Z" fill="white"/>
<path d="M39.9671 21.275C39.9671 21.0161 39.8376 20.6277 39.7082 20.3688V20.2393C39.1903 19.2036 38.1546 18.8152 37.1188 18.8152C34.5295 18.6857 34.2705 19.2036 33.3643 18.4268C33.6232 18.8152 33.6232 19.4625 33.2348 20.2393C32.9759 20.7572 32.458 21.0161 31.9401 21.1456C30.7749 18.4268 31.2928 16.7437 32.5875 16.0964C32.1991 15.1901 32.1991 14.9312 32.1991 14.9312C32.1991 14.9312 34.7884 15.3196 35.5652 15.1901C36.7304 14.9312 38.4135 15.1901 39.0608 16.7437C40.0966 17.1321 40.485 17.7794 40.6144 18.5562C40.7439 19.4625 40.0966 20.7572 39.9671 21.275Z" fill="#AAB2C5"/>
<path d="M38.9391 27.9919V28.4895H33.0928V27.8676C33.2172 27.7432 33.2172 27.4944 33.2172 27.37V25.0066L33.0928 24.8822V24.7578C33.2172 25.0066 33.3416 25.131 33.5903 25.3798L35.4562 26.6237C35.8294 26.9968 36.4513 26.9968 36.9489 26.6237L38.6903 25.131L38.8147 25.0066C38.8147 25.131 38.8147 25.5042 38.8147 27.4944C38.6903 27.6188 38.8147 27.7432 38.9391 27.9919Z" fill="url(#paint0_linear_1_2004)"/>
<path d="M75.8831 19.7821H52.0002C51.3783 19.7821 51.0051 19.2846 51.0051 18.787V15.6772C51.0051 15.0553 51.5027 14.6821 52.0002 14.6821H75.8831C76.505 14.6821 76.8782 15.1797 76.8782 15.6772V18.787C76.8782 19.4089 76.505 19.7821 75.8831 19.7821Z" fill="#D6DCE8"/>
<path d="M104.244 30.3554H52C51.3781 30.3554 51.0049 29.8578 51.0049 29.3602V26.2505C51.0049 25.6285 51.5024 25.2554 52 25.2554H104.244C104.866 25.2554 105.239 25.7529 105.239 26.2505V29.3602C105.239 29.9822 104.741 30.3554 104.244 30.3554Z" fill="#D6DCE8"/>
<path d="M131.236 120.538H23.3904C21.027 120.538 19.1611 118.672 19.1611 116.309V92.053C19.1611 89.6896 21.027 87.8237 23.3904 87.8237H131.112C133.475 87.8237 135.341 89.6896 135.341 92.053V116.309C135.466 118.672 133.475 120.538 131.236 120.538Z" fill="white" stroke="#D6DCE8" stroke-width="2" stroke-miterlimit="10"/>
<path d="M45.283 104.119C45.283 106.856 44.0391 109.344 42.1732 111.085C40.5562 112.578 38.3172 113.449 35.9538 113.449C33.5903 113.449 31.3513 112.578 29.7343 111.085C27.744 109.344 26.6245 106.856 26.6245 104.119C26.6245 99.0193 30.8538 94.79 35.9538 94.79C41.0537 94.79 45.283 99.0193 45.283 104.119Z" fill="#D6DCE8"/>
<path d="M42.1731 111.084C40.556 112.577 38.317 113.448 35.9536 113.448C33.5902 113.448 31.3512 112.577 29.7341 111.084C30.4805 110.836 31.3512 110.462 32.4707 109.965C32.7195 109.84 32.9683 109.592 33.0927 109.343C33.217 109.219 33.217 108.97 33.217 108.845V106.482L33.0927 106.358C32.8439 106.109 32.7195 105.736 32.7195 105.362L32.4707 105.238C31.8488 105.362 31.9731 104.74 31.7244 103.497C31.7244 102.999 31.7244 102.875 31.9731 102.75L32.2219 102.501C31.1024 99.8893 31.6 98.2722 32.8439 97.6503C32.4707 96.7795 32.4707 96.5308 32.4707 96.5308C32.4707 96.5308 34.9585 96.9039 35.7048 96.7795C36.8244 96.5308 38.4414 96.7795 39.0634 98.2722C40.0585 98.6454 40.4317 99.2673 40.556 100.014C40.6804 101.133 40.0585 102.377 39.9341 102.75C40.0585 102.875 40.1829 102.999 40.0585 103.372C39.9341 104.492 39.9341 105.238 39.3121 105.114L38.8146 106.109C38.8146 106.233 38.8146 106.233 38.8146 106.358C38.8146 106.482 38.8146 106.855 38.8146 108.845C38.8146 109.094 38.939 109.343 38.939 109.467C39.0634 109.716 39.3121 109.84 39.4365 109.965C40.556 110.587 41.4268 110.836 42.1731 111.084Z" fill="white"/>
<path d="M39.9671 102.875C39.9671 102.616 39.8376 102.227 39.7082 101.968V101.839C39.1903 100.803 38.1546 100.415 37.1188 100.415C34.5295 100.285 34.2705 100.803 33.3643 100.026C33.6232 100.415 33.6232 101.062 33.2348 101.839C32.9759 102.357 32.458 102.616 31.9401 102.745C30.7749 100.026 31.2928 98.3433 32.5875 97.696C32.1991 96.7897 32.1991 96.5308 32.1991 96.5308C32.1991 96.5308 34.7884 96.9192 35.5652 96.7897C36.7304 96.5308 38.4135 96.7897 39.0608 98.3433C40.0966 98.7317 40.485 99.379 40.6144 100.156C40.7439 101.192 40.0966 102.357 39.9671 102.875Z" fill="#AAB2C5"/>
<path d="M38.9391 109.592V110.09H33.0928V109.468C33.2172 109.343 33.2172 109.094 33.2172 108.97V106.607L33.0928 106.482V106.358C33.2172 106.607 33.3416 106.731 33.5903 106.98L35.4562 108.224C35.8294 108.597 36.4513 108.597 36.9489 108.224L38.6903 106.731L38.8147 106.607C38.8147 106.731 38.8147 107.104 38.8147 109.094C38.6903 109.219 38.8147 109.468 38.9391 109.592Z" fill="url(#paint1_linear_1_2004)"/>
<path d="M75.8831 101.507H52.0002C51.3783 101.507 51.0051 101.009 51.0051 100.512V97.4019C51.0051 96.7799 51.5027 96.4067 52.0002 96.4067H75.8831C76.505 96.4067 76.8782 96.9043 76.8782 97.4019V100.512C76.8782 101.009 76.505 101.507 75.8831 101.507Z" fill="#D6DCE8"/>
<path d="M104.244 112.08H52C51.3781 112.08 51.0049 111.582 51.0049 111.085V107.975C51.0049 107.353 51.5024 106.98 52 106.98H104.244C104.866 106.98 105.239 107.478 105.239 107.975V111.085C105.239 111.582 104.741 112.08 104.244 112.08Z" fill="#D6DCE8"/>
<path d="M112.951 79.7389H5.22925C2.86585 79.7389 1 77.8731 1 75.5097V51.2537C1 48.8903 2.86585 47.0244 5.22925 47.0244H112.951C115.314 47.0244 117.18 48.8903 117.18 51.2537V75.5097C117.305 77.8731 115.314 79.7389 112.951 79.7389Z" fill="white" stroke="#D6DCE8" stroke-width="2" stroke-miterlimit="10"/>
<path d="M57.7217 60.5824H33.8389C33.2169 60.5824 32.8438 60.0848 32.8438 59.5873V56.4775C32.8438 55.8556 33.3413 55.4824 33.8389 55.4824H57.7217C58.3437 55.4824 58.7168 55.98 58.7168 56.4775V59.5873C58.7168 60.2092 58.3437 60.5824 57.7217 60.5824Z" fill="#D6DCE8"/>
<path d="M86.0826 71.2802H33.8389C33.2169 71.2802 32.8438 70.7826 32.8438 70.285V67.1753C32.8438 66.5533 33.3413 66.1802 33.8389 66.1802H85.9582C86.5802 66.1802 86.9533 66.6777 86.9533 67.1753V70.285C87.0777 70.7826 86.5802 71.2802 86.0826 71.2802Z" fill="#D6DCE8"/>
<path d="M27.2462 63.3195C27.2462 65.9317 26.1267 68.2951 24.3853 70.0365C24.2609 70.1609 24.2609 70.1609 24.1365 70.2853C22.5194 71.778 20.2804 72.6487 17.917 72.6487C15.5536 72.6487 13.439 71.778 11.8219 70.4097C11.8219 70.4097 11.8219 70.4097 11.6975 70.4097C9.70728 68.6682 8.46338 66.1804 8.46338 63.3195C8.46338 58.2195 12.6926 53.9902 17.7926 53.9902C23.017 53.9902 27.2462 58.2195 27.2462 63.3195Z" fill="#D6DCE8"/>
<path d="M24.3489 70.226C23.9705 69.343 23.3397 68.5862 22.3306 68.0816C21.826 67.8293 21.4476 67.7032 20.8169 67.7032H20.4384C19.5554 67.7032 19.4293 67.577 19.4293 67.577V66.0633C20.4384 65.3064 21.1953 64.2973 21.4476 63.162C22.0783 63.0359 22.4567 62.5313 22.3306 61.9006C22.3306 61.6483 22.0783 61.396 22.0783 61.1437C22.0783 61.0176 22.0783 60.8914 22.0783 60.7653C22.0783 60.6391 22.0783 60.6391 22.0783 60.513C22.0783 60.3868 22.0783 60.3868 22.0783 60.2607C22.0783 59.7561 21.9522 59.3777 21.5737 58.8731C20.8169 57.4855 19.3031 56.6025 17.6633 56.6025C17.2849 56.6025 17.0326 56.6025 16.6541 56.7287C16.0234 56.8548 15.5188 57.1071 15.0143 57.4855C14.8881 57.6117 14.8881 57.6117 14.762 57.7378C14.762 57.7378 14.762 57.7378 14.6358 57.864C14.1313 58.3685 13.7528 58.9993 13.5006 59.63C13.2483 60.2607 13.2483 61.0176 13.2483 61.7744C13.2483 61.7744 13.2483 61.7744 13.2483 61.9006C13.2483 62.0267 13.2483 62.0267 13.2483 62.1528C13.2483 62.1528 13.2483 62.279 13.1221 62.279C13.3744 62.0267 13.2483 62.4051 13.3744 62.6574C13.6267 63.2881 14.0051 63.162 14.5097 63.5404C14.5097 63.5404 14.5097 63.5404 14.3836 63.5404L13.879 63.6666C11.1038 64.5496 10.8515 67.4509 13.6267 68.0816C13.3744 68.2077 13.2483 68.3339 13.1221 68.3339C12.3653 68.9646 11.8607 69.7215 11.6084 70.4783C13.2483 71.8659 15.3927 72.7489 17.7894 72.7489C20.1862 72.7489 22.4567 71.8659 24.0966 70.3522C24.2227 70.4783 24.3489 70.3522 24.3489 70.226C24.475 70.226 24.475 70.226 24.3489 70.226ZM16.528 67.1986C16.4019 67.0724 16.2757 66.9463 16.2757 66.9463C16.1496 66.8202 16.0234 66.8202 15.8973 66.694C15.8973 66.694 15.7711 66.694 15.7711 66.5679C15.3927 66.3156 15.0143 66.0633 14.8881 65.6849C14.8881 65.5587 15.0143 65.3064 15.2666 65.0542C15.3927 65.1803 15.5188 65.3064 15.645 65.5587C15.7711 65.6849 15.8973 65.811 16.0234 65.9372C16.1496 65.9372 16.2757 66.0633 16.2757 66.1894C16.2757 66.1894 16.2757 66.1894 16.4018 66.1894C16.4018 66.1894 16.4019 66.1894 16.528 66.1894V67.1986Z" fill="white"/>
<path d="M20.5917 67.6307C20.4673 68.1283 20.2185 68.5015 20.2185 68.5015L15.4917 67.7551L15.7405 66.5112C15.7405 66.5112 15.8649 66.5112 15.8649 66.6356C15.9893 66.76 16.1136 66.76 16.238 66.8844C16.3624 66.8844 16.3624 67.0088 16.4868 67.1332V66.2625C16.4868 66.2625 16.4868 66.2625 16.3624 66.2625C17.1088 66.6356 18.1039 66.8844 19.4722 66.0137V67.5064C19.5966 67.5064 19.721 67.6307 20.5917 67.6307Z" fill="url(#paint2_linear_1_2004)"/>
<path d="M19.6085 60.6931C20.4959 60.6931 21.3833 60.5663 22.144 60.3127C22.144 60.3127 22.144 60.186 22.2707 60.0592C22.144 59.6789 22.0172 59.1718 21.7637 58.6647C21.003 57.2702 19.4818 56.3828 17.8337 56.3828C17.4534 56.3828 17.0886 56.4099 16.5799 56.5367C15.903 56.7436 15.5887 56.9254 15.4284 57.0226C15.4284 57.0226 15.0578 57.2718 14.7912 57.5238C14.5246 57.7757 13.9038 58.6647 13.6503 59.2986C13.3967 60.0592 13.1921 60.7057 13.3189 61.4663C13.4457 61.4663 13.6502 61.3269 13.777 61.3269C14.7912 60.8198 15.5518 60.186 15.9321 59.1718C16.9463 60.0592 18.214 60.5663 19.6085 60.6931Z" fill="#AAB2C5"/>
<path d="M15.3049 65.1855C15.4293 65.3099 15.5537 65.4343 15.6781 65.5587C15.5537 65.4343 15.4293 65.3099 15.3049 65.1855Z" fill="#3973F4"/>
<path d="M17.0465 69.7879C16.6733 70.2854 16.0513 70.2854 15.4294 70.2854C16.0513 69.6635 15.6782 67.7976 13.6879 68.0464C10.827 67.5488 11.2001 64.5635 13.9367 63.6928L14.4343 63.5684C14.4343 63.5684 14.4343 63.5684 14.5587 63.6928C14.8074 64.3147 15.0562 64.6879 15.4294 65.1854C14.3099 66.1805 15.927 66.4293 16.6733 67.1757C17.1709 67.4244 17.6684 69.0415 17.0465 69.7879Z" fill="#AAB2C5"/>
<defs>
<linearGradient id="paint0_linear_1_2004" x1="36.0177" y1="28.5122" x2="36.0177" y2="26.4564" gradientUnits="userSpaceOnUse">
<stop stop-color="white"/>
<stop offset="1" stop-color="#E2E5EC"/>
</linearGradient>
<linearGradient id="paint1_linear_1_2004" x1="36.0177" y1="110.112" x2="36.0177" y2="108.057" gradientUnits="userSpaceOnUse">
<stop stop-color="white"/>
<stop offset="1" stop-color="#E2E5EC"/>
</linearGradient>
<linearGradient id="paint2_linear_1_2004" x1="18.0432" y1="68.5166" x2="18.0432" y2="67.1461" gradientUnits="userSpaceOnUse">
<stop stop-color="white"/>
<stop offset="1" stop-color="#E2E5EC"/>
</linearGradient>
</defs>
</svg>
