<svg width="198" height="211" viewBox="0 0 198 211" fill="none" xmlns="http://www.w3.org/2000/svg">
<path d="M94.0871 210C143.08 210 182.8 170.461 182.8 121.516C182.8 72.5717 143.08 33.0327 94.0871 33.0327C45.0938 33.0327 5.37427 72.5717 5.37427 121.516C5.37427 170.461 45.0938 210 94.0871 210Z" fill="#F1F3F9" stroke="#D6DCE8" stroke-width="2" stroke-miterlimit="10"/>
<path d="M28.8215 64.2111H154.979C160.053 64.2111 163.903 68.043 163.903 73.0943V152.695C163.903 157.746 160.053 161.578 154.979 161.578H28.8215C23.7472 161.578 19.8977 157.746 19.8977 152.695V73.0943C19.8977 68.043 24.0971 64.2111 28.8215 64.2111Z" fill="#F1F3F9" stroke="#D6DCE8" stroke-width="2" stroke-miterlimit="10"/>
<path d="M166.352 115.246V154.436C166.352 159.488 162.328 163.668 157.079 163.668H27.4214C22.3471 163.668 18.1477 159.488 18.1477 154.436V111.936" stroke="#1676EE" stroke-width="3" stroke-linecap="round" stroke-linejoin="round"/>
<path d="M155.329 93.2991H114.384C110.36 93.2991 106.51 94.6925 103.536 97.131L92.8624 105.84C89.8878 108.279 86.0383 109.672 82.0138 109.672H35.8202C31.0958 109.672 27.2463 113.504 27.2463 118.207C27.2463 118.555 27.2463 119.078 27.4213 119.426L35.9951 164.365C36.695 168.545 40.1946 171.68 44.569 171.68H143.43C147.63 171.68 151.304 168.719 152.004 164.539L163.903 103.053C164.778 98.3503 161.628 94.17 156.904 93.2991C156.204 93.2991 155.679 93.2991 155.329 93.2991Z" fill="white"/>
<path d="M173.701 81.2806H120.508C115.259 81.2806 110.36 83.0224 106.335 86.3319L92.3373 97.6536C88.4878 100.789 83.4135 102.705 78.1642 102.705H17.9725C11.8483 102.705 6.94897 107.756 6.94897 113.678C6.94897 114.201 6.94897 114.723 7.12395 115.246L18.1474 173.945C19.0223 179.518 23.7467 183.525 29.1709 183.525H157.953C163.553 183.525 168.102 179.693 168.977 174.119L184.55 93.8216C185.6 87.7253 181.575 82.3257 175.451 81.1064C174.926 81.2806 174.226 81.2806 173.701 81.2806Z" fill="white" stroke="#D6DCE8" stroke-width="2" stroke-miterlimit="10"/>
<path d="M70.8157 142.07C73.9653 142.07 76.5899 139.457 76.5899 136.322C76.5899 133.186 73.9653 130.574 70.8157 130.574C67.6661 130.574 65.0415 133.186 65.0415 136.322C65.0415 139.457 67.6661 142.07 70.8157 142.07Z" fill="#AAB2C5"/>
<path d="M115.784 141.895C118.934 141.895 121.558 139.283 121.558 136.147C121.558 133.012 118.934 130.4 115.784 130.4C112.635 130.4 110.01 133.012 110.01 136.147C110.01 139.457 112.635 141.895 115.784 141.895Z" fill="#AAB2C5"/>
<path d="M86.2132 100.789C79.9141 88.5962 78.5143 73.965 82.7137 60.7273C86.7381 47.4896 96.3618 36.1679 108.26 29.7232C111.935 27.8072 116.134 26.2396 120.334 26.0654C124.533 25.8912 129.082 27.2847 131.882 30.7683C134.682 33.9035 135.206 39.1289 132.932 42.6125C130.482 45.922 125.583 47.3154 121.558 46.2703C115.084 45.0511 109.835 39.9998 108.26 33.9035C106.685 27.8072 108.785 20.6658 113.684 16.6597C116.834 13.8728 121.208 12.3051 125.233 11.0859C144.83 5.33793 166.177 4.6412 186.125 8.99571" stroke="#D6DCE8" stroke-width="2" stroke-miterlimit="10" stroke-dasharray="4 4"/>
<path d="M98.8114 148.166H87.9629V150.779H98.8114V148.166Z" fill="#AAB2C5"/>
<path d="M196.623 4.46699C196.448 7.07969 196.273 9.51822 194.348 10.0408C192.424 10.5633 191.549 8.8215 190.324 6.38297C189.099 4.11863 189.799 1.6801 191.899 1.15756C193.823 0.635017 196.973 1.33174 196.623 4.46699Z" fill="#F1F3F9" stroke="#D6DCE8" stroke-width="2" stroke-miterlimit="10"/>
<path d="M194.523 17.008C195.048 13.8728 195.573 12.131 193.824 11.2601C191.899 10.3892 190.674 11.9568 188.574 14.0469C186.825 15.9629 187.874 18.7498 189.624 19.6207C191.724 20.6658 193.999 19.6207 194.523 17.008Z" fill="#F1F3F9" stroke="#D6DCE8" stroke-width="2" stroke-miterlimit="10"/>
<path d="M196.973 11.2602C196.798 12.4794 195.923 13.3504 194.699 13.5245C194.174 13.5245 193.649 13.5245 192.949 13.5245C190.499 13.1762 188.574 11.6085 188.749 10.0409C188.924 8.4733 191.199 7.6024 193.999 7.95076C194.524 7.95076 195.048 8.12494 195.398 8.29912C196.448 8.64748 197.148 9.86674 196.973 11.2602C196.973 11.2602 196.973 11.086 196.973 11.2602Z" fill="#F1F3F9"/>
<path d="M196.973 11.2602C196.798 12.4794 195.923 13.3504 194.699 13.5245C194.174 13.5245 193.649 13.5245 192.949 13.5245C190.499 13.1762 188.574 11.6085 188.749 10.0409C188.924 8.4733 191.199 7.6024 193.999 7.95076C194.524 7.95076 195.048 8.12494 195.398 8.29912C196.448 8.64748 197.148 9.86674 196.973 11.2602ZM196.973 11.2602C196.973 11.086 196.973 11.2602 196.973 11.2602Z" stroke="#D6DCE8" stroke-width="2" stroke-miterlimit="10"/>
<path d="M1.69995 60.2049C1.69995 57.2438 1.69995 54.2828 3.79966 53.4119C6.07435 52.541 7.29918 54.6311 9.04894 57.5922C10.6237 60.2049 9.92382 62.9918 7.64914 63.8627C5.7244 64.7336 1.69995 64.211 1.69995 60.2049Z" fill="#F1F3F9" stroke="#D6DCE8" stroke-width="2" stroke-miterlimit="10"/>
<path d="M2.92454 45.5735C2.57459 49.2313 2.04966 51.3215 4.32435 52.1924C6.59904 53.0633 7.82387 51.1473 10.0986 48.3604C11.8483 45.9219 10.6235 42.7866 8.3488 41.9157C6.07411 41.0448 3.27449 42.6125 2.92454 45.5735Z" fill="#F1F3F9" stroke="#D6DCE8" stroke-width="2" stroke-miterlimit="10"/>
<path d="M1 52.5408C1 51.1474 2.04986 50.1023 3.27469 49.9281C3.79962 49.7539 4.49952 49.7539 5.19943 49.9281C7.99904 50.1023 10.4487 51.6699 10.2737 53.4117C10.0988 55.1535 7.82407 56.3728 4.84947 56.0244C4.32455 56.0244 3.79962 55.8503 3.27469 55.6761C1.87488 55.5019 1 54.1085 1 52.5408Z" fill="#F1F3F9" stroke="#D6DCE8" stroke-width="2" stroke-miterlimit="10"/>
<path d="M12.8984 53.0635C31.2709 53.0635 65.2163 63.6885 65.7412 102.705" stroke="#D6DCE8" stroke-width="2" stroke-miterlimit="10" stroke-dasharray="4 4"/>
</svg>
