<svg width="24" height="24" viewBox="0 0 24 24" fill="none" xmlns="http://www.w3.org/2000/svg">
<g clip-path="url(#clip0_1_1955)">
<path d="M2.50594 0H21.4931C22.1442 0.0229688 22.7841 0.294844 23.2416 0.760312C23.7042 1.21781 23.9747 1.85484 24 2.50359V16.4747C23.9686 17.213 23.6128 17.9297 23.0339 18.3905C22.5713 18.7692 21.9731 18.9689 21.3764 18.9647C19.4006 18.9666 17.4248 18.9661 15.4491 18.9652C14.7708 20.3062 14.107 21.6544 13.4288 22.9955C13.1667 23.4998 12.6989 23.9391 12.113 24H11.8945C11.4502 23.9559 11.0559 23.6902 10.792 23.3386C10.5778 23.0639 10.447 22.7381 10.2867 22.4316C9.70734 21.2766 9.13359 20.1183 8.55047 18.9647C6.57562 18.9661 4.60078 18.9666 2.62641 18.9647C1.96312 18.9717 1.30078 18.7186 0.818906 18.2616C0.324844 17.805 0.0309375 17.1497 0 16.4794V2.50547C0.0234375 1.86703 0.285469 1.23937 0.735 0.784219C1.19484 0.306562 1.84406 0.0234375 2.50594 0ZM11.7858 3.02437C11.2725 3.07266 10.7808 3.31031 10.4217 3.67969C10.0242 4.08141 9.79406 4.64109 9.79172 5.20594C9.78938 6.28312 9.79078 7.35984 9.79078 8.43656C9.78797 8.81672 9.87938 9.19781 10.0636 9.53063C10.3805 10.1119 10.9702 10.537 11.6241 10.6458C12.2273 10.7531 12.8719 10.5923 13.3533 10.2131C13.8839 9.80766 14.2073 9.14953 14.2083 8.48203C14.2111 7.40531 14.2092 6.32906 14.2092 5.25281C14.2106 4.88391 14.1253 4.51359 13.9505 4.18781C13.5492 3.41062 12.6562 2.92687 11.7858 3.02437ZM11.7342 12.3038C10.9669 12.39 10.2708 12.9136 9.97078 13.6247C9.68672 14.2744 9.74531 15.06 10.125 15.6595C10.4672 16.215 11.0667 16.6041 11.7155 16.6842C12.3202 16.7663 12.9548 16.5811 13.4194 16.1855C13.9172 15.7716 14.2153 15.1303 14.2073 14.4825C14.2078 13.8164 13.8848 13.1606 13.357 12.7547C12.9038 12.397 12.3066 12.2325 11.7342 12.3038Z" fill="#26397F"/>
<path d="M11.8333 4.43623C12.3039 4.32045 12.8069 4.71888 12.8018 5.2031C12.8041 6.29669 12.8036 7.39076 12.8018 8.48482C12.805 8.90857 12.4221 9.28404 11.9983 9.27279C11.575 9.2831 11.1925 8.90623 11.1977 8.48248C11.1958 7.39076 11.1958 6.29857 11.1977 5.20685C11.1963 4.8431 11.4771 4.50607 11.8333 4.43623Z" fill="#26397F"/>
<path d="M11.8279 13.7112C12.2024 13.6217 12.6168 13.8448 12.7485 14.2057C12.8882 14.5451 12.7523 14.9656 12.4448 15.1634C12.1565 15.3621 11.7402 15.3373 11.4787 15.1048C11.2237 14.8929 11.1271 14.516 11.2509 14.2081C11.3446 13.9601 11.5691 13.7674 11.8279 13.7112Z" fill="#26397F"/>
</g>
<defs>
<clipPath id="clip0_1_1955">
<rect width="24" height="24" fill="white"/>
</clipPath>
</defs>
</svg>
