<svg width="24" height="24" viewBox="0 0 24 24" fill="none" xmlns="http://www.w3.org/2000/svg">
<path d="M14.7139 4.67695L14.7136 4.6771L6.15359 8.9571C4.3061 9.88085 3.54998 11.0126 3.54998 11.9999C3.54998 12.9872 4.3061 14.1189 6.15359 15.0427L14.7136 19.3227C16.1234 20.0276 17.2883 20.3927 18.1896 20.4786C19.093 20.5647 19.6626 20.3669 19.9912 20.0378C20.3199 19.7087 20.5169 19.1388 20.4301 18.2357C20.3435 17.3349 19.9779 16.1713 19.2731 14.7641C19.273 14.764 19.273 14.7639 19.2729 14.7638L18.4033 13.0345L18.4033 13.0345L18.401 13.03C18.083 12.3811 18.083 11.6286 18.401 10.9798L18.401 10.9798L18.4028 10.9763L19.2728 9.23628L19.2729 9.23597C19.9777 7.82878 20.3428 6.6652 20.4286 5.76446C20.5147 4.86164 20.317 4.29156 19.9877 3.96219C19.6583 3.63283 19.0882 3.43514 18.1854 3.52123C17.2847 3.60711 16.1211 3.97213 14.7139 4.67695ZM14.56 13.2499H9.15998C8.47384 13.2499 7.90998 12.686 7.90998 11.9999C7.90998 11.3137 8.47384 10.7499 9.15998 10.7499H14.56C15.2461 10.7499 15.81 11.3137 15.81 11.9999C15.81 12.686 15.2461 13.2499 14.56 13.2499Z" fill="white" stroke="white"/>
</svg>
