<svg width="20" height="20" viewBox="0 0 20 20" fill="none" xmlns="http://www.w3.org/2000/svg">
<path d="M9.69063 0H10.2445C11.7531 0.0414062 13.2551 0.412891 14.5941 1.11211C16.6215 2.16133 18.2723 3.92227 19.1785 6.01836C19.6922 7.19492 19.9621 8.47227 20 9.7543V10.1359C19.975 11.8145 19.5266 13.4859 18.6926 14.9441C18.5949 15.1043 18.5129 15.2762 18.3891 15.4184C18.1609 15.6691 17.7629 15.7387 17.4637 15.5793C17.1934 15.4453 17.0203 15.1434 17.0395 14.8426C17.0449 14.6879 17.1078 14.5426 17.1902 14.4145C18.0527 13.0188 18.4895 11.3652 18.4309 9.72617C18.3754 7.69023 17.5379 5.69219 16.1359 4.2168C15.1687 3.18711 13.9391 2.40508 12.5938 1.97148C10.4937 1.28516 8.12383 1.47188 6.16211 2.48984C4.34727 3.41367 2.88984 5.01758 2.14844 6.91484C1.26836 9.12031 1.38828 11.7 2.47578 13.8113C3.45234 15.7484 5.20508 17.2777 7.25859 17.9777C8.92109 18.5539 10.7652 18.5867 12.4488 18.0758C13.2211 17.8422 13.959 17.4961 14.6324 17.052C14.9852 16.7844 15.5453 16.8934 15.7633 17.2812C15.9262 17.543 15.909 17.9 15.7238 18.1465C15.6207 18.2934 15.4574 18.3773 15.3105 18.4734C13.7797 19.4418 11.9797 19.9668 10.1699 20H9.75742C8.19219 19.9566 6.63398 19.5574 5.25742 18.8074C3.11211 17.6539 1.41133 15.6926 0.589844 13.398C0.226562 12.3988 0.0378906 11.3414 0 10.2805V9.72578C0.0417969 8.45273 0.310547 7.18516 0.821875 6.01719C1.72813 3.92187 3.37891 2.16133 5.40586 1.11328C6.72617 0.423828 8.2043 0.0539063 9.69063 0Z" fill="white"/>
<path d="M9.44834 5.66025C9.73467 5.35752 10.2636 5.3583 10.5511 5.65908C11.5229 6.65322 12.4925 7.64971 13.4636 8.64463C13.6437 8.82041 13.7323 9.08408 13.689 9.33291C13.6452 9.61807 13.4288 9.86689 13.153 9.95049C12.8784 10.0399 12.5589 9.95908 12.3597 9.7501C11.8327 9.21221 11.3085 8.67119 10.7815 8.1333C10.7804 10.0196 10.7823 11.906 10.7804 13.7923C10.7815 14.0622 10.6296 14.3255 10.396 14.4603C10.1573 14.604 9.84092 14.604 9.60264 14.4599C9.36865 14.3239 9.2167 14.0603 9.21904 13.7892C9.21826 11.904 9.21904 10.0185 9.21865 8.13291C8.69248 8.67197 8.16709 9.21182 7.64014 9.75049C7.46592 9.93057 7.20225 10.0188 6.95498 9.97588C6.66162 9.93174 6.40654 9.70361 6.32881 9.41768C6.25264 9.15635 6.32686 8.85791 6.51865 8.66416C7.49482 7.6626 8.47139 6.66104 9.44834 5.66025Z" fill="white"/>
</svg>
