<svg width="17" height="16" viewBox="0 0 17 16" fill="none" xmlns="http://www.w3.org/2000/svg">
<rect x="1" y="0.5" width="15" height="15" rx="7.5" stroke="#434C5D"/>
<path d="M8.26075 11.1155C8.26075 11.3302 8.43488 11.5044 8.6496 11.5044C8.86425 11.5044 9.03844 11.3305 9.03844 11.1155V4.9055C9.03844 4.69078 8.86432 4.51666 8.6496 4.51666C8.43487 4.51666 8.26075 4.69079 8.26075 4.9055V11.1155Z" fill="#434C5D" stroke="#434C5D" stroke-width="0.3"/>
<path d="M10.7293 6.98649L10.8355 7.09236C10.7594 7.16872 10.6594 7.20644 10.5604 7.20644L10.7293 6.98649ZM10.7293 6.98649C10.6827 7.03323 10.6215 7.05644 10.5604 7.05644L10.7293 6.98649ZM10.7293 6.98649L10.8353 7.09256C10.9872 6.94066 10.9872 6.69453 10.8353 6.54263L8.92459 4.63189C8.77275 4.48005 8.52637 4.47991 8.37457 4.63199L10.7293 6.98649ZM8.64964 5.45677L7.01394 7.09246L7.01385 7.09256L6.90778 6.98649L8.64964 5.45677ZM8.64964 5.45677L10.2854 7.09256C10.2854 7.09256 10.2854 7.09256 10.2854 7.09256C10.3613 7.16839 10.4612 7.20644 10.5604 7.20644L8.64964 5.45677Z" fill="#434C5D" stroke="#434C5D" stroke-width="0.3"/>
</svg>
