<svg width="260" height="48" viewBox="0 0 260 48" fill="none" xmlns="http://www.w3.org/2000/svg">
<rect y="11.8035" width="3.22157" height="24.3934" rx="1.61078" fill="#7181BE"/>
<rect x="135.305" y="11.8035" width="3.22157" height="24.3934" rx="1.61078" fill="#7181BE"/>
<rect x="115.977" y="10.229" width="3.22157" height="27.541" rx="1.61078" fill="#7181BE"/>
<rect x="251.281" y="14.1641" width="3.22157" height="19.6721" rx="1.61078" fill="#A1A5AD"/>
<rect x="38.6602" y="11.8035" width="3.22157" height="24.3934" rx="1.61078" fill="#7181BE"/>
<rect x="173.965" y="11.8035" width="3.22157" height="24.3934" rx="1.61078" fill="#A1A5AD"/>
<rect x="77.3203" y="13.3774" width="3.22157" height="21.2459" rx="1.61078" fill="#7181BE"/>
<rect x="212.625" y="16.5244" width="3.22157" height="14.9508" rx="1.61078" fill="#A1A5AD"/>
<rect x="19.3281" y="11.8035" width="3.22157" height="24.3934" rx="1.61078" fill="#7181BE"/>
<rect x="154.633" y="11.8035" width="3.22157" height="24.3934" rx="1.61078" fill="#A1A5AD"/>
<rect x="57.9922" y="19.6721" width="3.22157" height="8.65574" rx="1.61078" fill="#7181BE"/>
<rect x="193.297" y="21.2461" width="3.22157" height="5.5082" rx="1.61078" fill="#A1A5AD"/>
<rect x="96.6484" y="8.65576" width="3.22157" height="30.6885" rx="1.61078" fill="#7181BE"/>
<rect x="231.953" y="13.3774" width="3.22157" height="21.2459" rx="1.61078" fill="#A1A5AD"/>
<rect x="4.83203" y="3.14771" width="3.22157" height="41.7049" rx="1.61078" fill="#7181BE"/>
<rect x="140.141" y="3.14771" width="3.22157" height="41.7049" rx="1.61078" fill="#A1A5AD"/>
<rect x="120.809" y="13.3774" width="3.22157" height="21.2459" rx="1.61078" fill="#7181BE"/>
<rect x="256.113" y="16.5244" width="3.22157" height="14.9508" rx="1.61078" fill="#A1A5AD"/>
<rect x="43.4883" y="11.8035" width="3.22157" height="24.3934" rx="1.61078" fill="#7181BE"/>
<rect x="178.797" y="11.8035" width="3.22157" height="24.3934" rx="1.61078" fill="#A1A5AD"/>
<rect x="82.1523" y="17.3115" width="3.22157" height="13.377" rx="1.61078" fill="#7181BE"/>
<rect x="217.457" y="19.6721" width="3.22157" height="8.65574" rx="1.61078" fill="#A1A5AD"/>
<rect x="24.1602" y="14.1641" width="3.22157" height="19.6721" rx="1.61078" fill="#7181BE"/>
<rect x="159.465" y="8.65576" width="3.22157" height="30.6885" rx="1.61078" fill="#A1A5AD"/>
<rect x="62.8242" y="13.3774" width="3.22157" height="21.2459" rx="1.61078" fill="#7181BE"/>
<rect x="198.125" y="16.5244" width="3.22157" height="14.9508" rx="1.61078" fill="#A1A5AD"/>
<rect x="101.48" y="8.65576" width="3.22157" height="30.6885" rx="1.61078" fill="#7181BE"/>
<rect x="236.785" y="13.3774" width="3.22157" height="21.2459" rx="1.61078" fill="#A1A5AD"/>
<rect x="9.66406" y="6.29492" width="3.22157" height="35.4098" rx="1.61078" fill="#7181BE"/>
<rect x="144.969" y="6.29492" width="3.22157" height="35.4098" rx="1.61078" fill="#A1A5AD"/>
<rect x="125.641" y="8.65576" width="3.22157" height="30.6885" rx="1.61078" fill="#7181BE"/>
<rect x="48.3203" y="15.7378" width="3.22157" height="16.5246" rx="1.61078" fill="#7181BE"/>
<rect x="183.633" y="18.0986" width="3.22157" height="11.8033" rx="1.61078" fill="#A1A5AD"/>
<rect x="86.9844" y="8.65576" width="3.22157" height="30.6885" rx="1.61078" fill="#7181BE"/>
<rect x="222.285" y="13.3774" width="3.22157" height="21.2459" rx="1.61078" fill="#A1A5AD"/>
<rect x="28.9922" width="3.22157" height="48" rx="1.61078" fill="#7181BE"/>
<rect x="164.301" width="3.22157" height="48" rx="1.61078" fill="#A1A5AD"/>
<rect x="67.6523" y="1.57373" width="3.22157" height="44.8525" rx="1.61078" fill="#7181BE"/>
<rect x="202.961" y="8.65576" width="3.22157" height="30.6885" rx="1.61078" fill="#A1A5AD"/>
<rect x="106.312" y="6.29492" width="3.22157" height="35.4098" rx="1.61078" fill="#7181BE"/>
<rect x="241.617" y="11.8035" width="3.22157" height="24.3934" rx="1.61078" fill="#A1A5AD"/>
<rect x="14.4961" y="14.9507" width="3.22157" height="18.0984" rx="1.61078" fill="#7181BE"/>
<rect x="149.801" y="10.229" width="3.22157" height="27.541" rx="1.61078" fill="#A1A5AD"/>
<rect x="130.473" y="8.65576" width="3.22157" height="30.6885" rx="1.61078" fill="#7181BE"/>
<rect x="53.1562" y="13.3774" width="3.22157" height="21.2459" rx="1.61078" fill="#7181BE"/>
<rect x="188.465" y="16.5244" width="3.22157" height="14.9508" rx="1.61078" fill="#A1A5AD"/>
<rect x="91.8125" y="1.57373" width="3.22157" height="44.8525" rx="1.61078" fill="#7181BE"/>
<rect x="227.121" y="8.65576" width="3.22157" height="30.6885" rx="1.61078" fill="#A1A5AD"/>
<rect x="33.8281" y="11.8035" width="3.22157" height="24.3934" rx="1.61078" fill="#7181BE"/>
<rect x="169.133" y="11.8035" width="3.22157" height="24.3934" rx="1.61078" fill="#A1A5AD"/>
<rect x="72.4844" y="8.65576" width="3.22157" height="30.6885" rx="1.61078" fill="#7181BE"/>
<rect x="207.793" y="13.3774" width="3.22157" height="21.2459" rx="1.61078" fill="#A1A5AD"/>
<rect x="111.145" y="1.57373" width="3.22157" height="44.8525" rx="1.61078" fill="#7181BE"/>
<rect x="246.453" y="8.65576" width="3.22157" height="30.6885" rx="1.61078" fill="#A1A5AD"/>
</svg>
