<svg width="40" height="40" viewBox="0 0 40 40" fill="none" xmlns="http://www.w3.org/2000/svg">
<path d="M26.55 6.46178L26.55 6.46178V6.46659V8.03325C26.55 9.49044 25.3739 10.6666 23.9167 10.6666H16.0667C14.6095 10.6666 13.4333 9.49044 13.4333 8.03325V6.46659C13.4333 5.01284 14.6227 3.83325 16.0833 3.83325H23.9167C25.3783 3.83325 26.564 5.01273 26.55 6.46178Z" fill="#E11640" stroke="#E11640"/>
<path d="M24.5702 28.1702L24.5703 28.1702L24.5762 28.1641C25.2436 27.4737 25.2521 26.3782 24.5702 25.6964L22.5071 23.6333L24.4869 21.6535C25.1655 20.9749 25.1655 19.8583 24.4869 19.1797C23.8083 18.5011 22.6917 18.5011 22.0131 19.1797L20.0333 21.1595L17.9702 19.0964C17.2916 18.4178 16.175 18.4178 15.4964 19.0964C14.8178 19.775 14.8178 20.8916 15.4964 21.5702L17.5596 23.6333L15.4298 25.7631C14.7512 26.4417 14.7512 27.5583 15.4298 28.2369C15.7785 28.5856 16.2245 28.75 16.6667 28.75C17.1088 28.75 17.5548 28.5856 17.9035 28.2369L20.0333 26.1071L22.0964 28.1702C22.4452 28.5189 22.8912 28.6833 23.3333 28.6833C23.7754 28.6833 24.2215 28.5189 24.5702 28.1702ZM23.9167 13.35C26.8428 13.35 29.2333 10.9594 29.2333 8.0333C29.2333 7.49357 29.8182 7.12592 30.3342 7.39262C32.5254 8.55927 34.0167 10.8755 34.0167 13.5333V29.2166C34.0167 33.0405 30.8905 36.1666 27.0667 36.1666H12.9333C9.10947 36.1666 5.98333 33.0405 5.98333 29.2166V13.5333C5.98333 10.8755 7.47456 8.55925 9.66587 7.39261C10.1818 7.12593 10.7667 7.49358 10.7667 8.0333C10.7667 10.9594 13.1572 13.35 16.0833 13.35H23.9167Z" fill="#E11640" stroke="#E11640"/>
</svg>
